# xmcd CD database file
#
# Track frame offsets:
#	150
#	18798
#	35007
#	52153
#	71390
#	87789
#	107535
#	127419
#	146192
#	160303
#	178024
#	193936
#	203170
#	218458
#	239094
#
# Disc length: 3607 seconds
#
# Revision: 0
# Processed by: cddbd v1.5.2PL0 Copyright (c) Steve Scherf et al.
# Submitted via: CDex 1.70beta2
#
DISCID=e10e150f
DTITLE=Rascal Flatts - iTunes Essentials
DYEAR=2007
DGENRE=Country
TTITLE0=I'm Movin' On
TTITLE1=What Hurts the Most
TTITLE2=Bless the Broken Road
TTITLE3=These Days
TTITLE4=Prayin' for Delight
TTITLE5=Skin
TTITLE6=Fast Cars and Freedom
TTITLE7=My Wish
TTITLE8=This Everyday Love
TTITLE9=I Melt
TTITLE10=Stand
TTITLE11=Lean On Me (live)
TTITLE12=Feels Like Today
TTITLE13=Mayberry
TTITLE14=Encore: Foreplay/Long Time, Free Ride (live)
EXTD=YEAR: 2007
EXTT0=
EXTT1=
EXTT2=
EXTT3=
EXTT4=
EXTT5=
EXTT6=
EXTT7=
EXTT8=
EXTT9=
EXTT10=
EXTT11=
EXTT12=
EXTT13=
EXTT14=
PLAYORDER=
